<?xml version="1.0" encoding="UTF-8"?>
<!DOCTYPE svg PUBLIC "-//W3C//DTD SVG 1.1//EN" "http://www.w3.org/Graphics/SVG/1.1/DTD/svg11.dtd">
<svg xmlns="http://www.w3.org/2000/svg" version="1.1" width="1125px" height="1125px" style="shape-rendering:geometricPrecision; text-rendering:geometricPrecision; image-rendering:optimizeQuality; fill-rule:evenodd; clip-rule:evenodd" xmlns:xlink="http://www.w3.org/1999/xlink">
<g><path style="opacity:1" fill="#fed586" d="M -0.5,-0.5 C 374.5,-0.5 749.5,-0.5 1124.5,-0.5C 1124.5,374.5 1124.5,749.5 1124.5,1124.5C 749.5,1124.5 374.5,1124.5 -0.5,1124.5C -0.5,749.5 -0.5,374.5 -0.5,-0.5 Z"/></g>
<g><path style="opacity:1" fill="#f6e7be" d="M 389.5,296.5 C 384.5,296.5 379.5,296.5 374.5,296.5C 361.608,295.124 348.608,295.457 335.5,297.5C 345.778,294.215 356.444,292.882 367.5,293.5C 372.833,293.833 378.167,294.167 383.5,294.5C 385.631,295.169 387.631,295.835 389.5,296.5 Z"/></g>
<g><path style="opacity:1" fill="#f4d69b" d="M 783.5,295.5 C 769.007,294.359 754.673,294.359 740.5,295.5C 733.476,296.171 726.476,297.171 719.5,298.5C 734.896,292.862 750.896,291.028 767.5,293C 773.025,293.52 778.358,294.353 783.5,295.5 Z"/></g>
<g><path style="opacity:1" fill="#f7e6bf" d="M 740.5,295.5 C 754.673,294.359 769.007,294.359 783.5,295.5C 788.943,296.759 794.277,298.425 799.5,300.5C 795.669,300.584 792.002,299.917 788.5,298.5C 772.761,295.837 756.761,294.837 740.5,295.5 Z"/></g>
<g><path style="opacity:1" fill="#fcfae6" d="M 374.5,296.5 C 358.921,295.785 343.587,297.118 328.5,300.5C 329.59,299.143 330.924,298.143 332.5,297.5C 333.5,297.5 334.5,297.5 335.5,297.5C 348.608,295.457 361.608,295.124 374.5,296.5 Z"/></g>
<g><path style="opacity:1" fill="#fefefd" d="M 374.5,296.5 C 379.5,296.5 384.5,296.5 389.5,296.5C 391.803,298.255 394.47,299.422 397.5,300C 396.112,300.889 396.278,301.389 398,301.5C 402.526,300.777 407.026,301.111 411.5,302.5C 414.817,302.664 417.817,303.664 420.5,305.5C 422.277,307.08 424.11,308.746 426,310.5C 426.333,309.833 426.667,309.167 427,308.5C 428.356,309.38 429.856,309.714 431.5,309.5C 431.5,310.833 432.167,311.5 433.5,311.5C 437.575,314.871 442.242,317.204 447.5,318.5C 450.727,322.023 454.393,325.023 458.5,327.5C 459.706,329.483 461.039,331.483 462.5,333.5C 465.102,334.435 467.102,336.102 468.5,338.5C 467.064,339.934 465.398,341.1 463.5,342C 466.507,342.301 469.507,342.135 472.5,341.5C 472.343,342.873 472.51,344.207 473,345.5C 473.414,345.043 473.914,344.709 474.5,344.5C 475.85,345.95 477.516,346.617 479.5,346.5C 479.5,347.167 479.5,347.833 479.5,348.5C 482.203,351.839 484.87,355.172 487.5,358.5C 488.535,361.275 489.869,363.942 491.5,366.5C 491.069,367.293 490.735,368.127 490.5,369C 491.833,370.667 493.167,372.333 494.5,374C 494.241,375.261 493.574,376.261 492.5,377C 494.061,377.318 495.228,378.151 496,379.5C 496.483,378.552 496.649,377.552 496.5,376.5C 497.5,376.5 498.5,376.5 499.5,376.5C 499.682,378.591 499.348,380.591 498.5,382.5C 499.689,383.429 501.022,383.762 502.5,383.5C 502.5,384.833 502.5,386.167 502.5,387.5C 503.5,387.5 504.5,387.5 505.5,387.5C 506.158,390.156 506.825,392.822 507.5,395.5C 507.61,397.374 506.944,398.874 505.5,400C 507.876,404.447 508.543,404.447 507.5,400C 508.793,399.51 510.127,399.343 511.5,399.5C 514.805,408.052 517.805,416.718 520.5,425.5C 520.5,427.5 520.5,429.5 520.5,431.5C 521.326,439.512 522.493,447.512 524,455.5C 524.5,468.829 524.667,482.163 524.5,495.5C 523.335,500.633 522.668,505.966 522.5,511.5C 520.96,513.838 520.294,516.505 520.5,519.5C 517.807,522.539 516.807,526.206 517.5,530.5C 517.5,530.833 517.5,531.167 517.5,531.5C 514.758,536.742 512.758,542.409 511.5,548.5C 508.453,549.29 506.786,551.29 506.5,554.5C 503.601,555.642 500.601,556.308 497.5,556.5C 497.5,557.5 497.5,558.5 497.5,559.5C 495.847,559.66 494.514,560.326 493.5,561.5C 474.606,569.393 459.272,581.726 447.5,598.5C 442.939,603.75 439.606,609.75 437.5,616.5C 434.706,622.116 433.04,628.116 432.5,634.5C 431.549,635.919 431.216,637.585 431.5,639.5C 430.5,639.5 429.5,639.5 428.5,639.5C 425.892,639.4 423.558,640.067 421.5,641.5C 414.108,642.851 406.774,644.351 399.5,646C 404.386,646.667 404.386,647.833 399.5,649.5C 399.5,649.833 399.5,650.167 399.5,650.5C 390.358,651.316 381.191,651.982 372,652.5C 366.833,652.333 361.667,652.167 356.5,652C 354.598,651.801 353.098,650.967 352,649.5C 350.991,650.658 349.658,651.325 348,651.5C 343.863,650.763 339.697,650.429 335.5,650.5C 330.472,648.162 325.139,646.828 319.5,646.5C 319.047,645.542 318.381,644.708 317.5,644C 319.271,643.465 319.604,642.631 318.5,641.5C 315.916,642.393 313.249,642.726 310.5,642.5C 310.5,641.5 310.5,640.5 310.5,639.5C 308.167,639.5 305.833,639.5 303.5,639.5C 302.5,639.5 301.5,639.5 300.5,639.5C 300.489,637.983 299.823,636.816 298.5,636C 299.357,635.311 300.023,634.478 300.5,633.5C 297.588,632.932 294.588,632.932 291.5,633.5C 291.5,632.5 291.5,631.5 291.5,630.5C 289.097,630.552 286.764,630.219 284.5,629.5C 283.71,628.206 282.71,627.039 281.5,626C 277.984,624.41 274.65,622.577 271.5,620.5C 267.109,616.613 262.776,612.447 258.5,608C 257.552,607.517 256.552,607.351 255.5,607.5C 255.785,605.712 255.452,604.045 254.5,602.5C 252.118,600.785 250.118,598.785 248.5,596.5C 245.885,593.046 243.051,589.712 240,586.5C 239.667,585.167 239.333,583.833 239,582.5C 235.985,579.122 233.485,575.456 231.5,571.5C 229.188,566.399 227.355,561.066 226,555.5C 225.184,554.177 224.017,553.511 222.5,553.5C 219.236,546.74 216.403,539.74 214,532.5C 214.025,527.171 212.858,522.171 210.5,517.5C 209.277,508.508 208.277,499.508 207.5,490.5C 207.5,489.167 207.5,487.833 207.5,486.5C 207.09,478.895 207.757,471.395 209.5,464C 208.671,461.284 208.337,458.617 208.5,456C 209.866,446.444 211.199,436.944 212.5,427.5C 213.077,424.034 214.077,420.701 215.5,417.5C 216.907,414.961 218.073,415.294 219,418.5C 219.692,417.975 220.192,417.308 220.5,416.5C 220.612,413.561 220.279,410.561 219.5,407.5C 220.531,404.3 222.198,401.467 224.5,399C 223.663,397.989 223.33,396.822 223.5,395.5C 223.5,394.167 223.5,392.833 223.5,391.5C 224.827,390.2 226.16,388.867 227.5,387.5C 229.025,382.638 231.025,377.971 233.5,373.5C 234.874,369.774 236.874,366.441 239.5,363.5C 240.496,363.586 241.329,363.252 242,362.5C 245.334,357.342 248.834,352.342 252.5,347.5C 254.333,345.888 256,344.222 257.5,342.5C 259.611,341.032 261.444,341.365 263,343.5C 262.981,341.893 262.815,340.226 262.5,338.5C 263.5,338.5 264.5,338.5 265.5,338.5C 266.583,334.875 268.583,331.875 271.5,329.5C 272.873,329.657 274.207,329.49 275.5,329C 277.281,326.763 279.281,324.763 281.5,323C 284.217,321.967 286.051,322.8 287,325.5C 287.305,323.443 287.305,321.443 287,319.5C 290.305,318.104 293.138,316.104 295.5,313.5C 297.094,312.017 298.76,310.517 300.5,309C 305.728,307.716 310.728,305.883 315.5,303.5C 319.88,302.707 324.213,301.707 328.5,300.5C 343.587,297.118 358.921,295.785 374.5,296.5 Z"/></g>
<g><path style="opacity:1" fill="#fefefd" d="M 788.5,298.5 C 792.002,299.917 795.669,300.584 799.5,300.5C 808.97,304.165 818.303,308.332 827.5,313C 828.793,313.49 830.127,313.657 831.5,313.5C 831.5,314.167 831.5,314.833 831.5,315.5C 836.542,319.19 841.875,322.523 847.5,325.5C 853.161,330.494 858.494,335.827 863.5,341.5C 864.782,343.464 866.115,345.464 867.5,347.5C 867.167,349.833 866.167,350.167 864.5,348.5C 862.142,349.999 861.976,351.666 864,353.5C 869.099,348.699 872.599,349.699 874.5,356.5C 876.317,357.767 877.984,359.1 879.5,360.5C 881.193,361.475 882.693,362.808 884,364.5C 884.374,366.491 885.207,368.158 886.5,369.5C 886.419,372.716 885.919,375.716 885,378.5C 889.16,382.673 889.993,382.339 887.5,377.5C 887.733,376.068 888.4,375.568 889.5,376C 890.383,379.45 891.216,382.95 892,386.5C 894.018,387.223 895.852,388.223 897.5,389.5C 899.121,392.807 900.787,396.14 902.5,399.5C 904.223,403.001 905.557,406.668 906.5,410.5C 906.475,417.089 908.142,423.089 911.5,428.5C 911.5,429.5 911.5,430.5 911.5,431.5C 911.12,433.698 911.787,435.365 913.5,436.5C 913.5,436.833 913.5,437.167 913.5,437.5C 915.287,456.775 915.953,476.109 915.5,495.5C 913.449,502.82 912.116,510.487 911.5,518.5C 911.127,521.574 910.461,524.574 909.5,527.5C 906.413,538.318 902.746,548.985 898.5,559.5C 897.624,559.369 896.957,559.702 896.5,560.5C 894.141,565.514 891.808,570.514 889.5,575.5C 885.786,579.883 882.453,584.55 879.5,589.5C 879.672,590.492 879.338,591.158 878.5,591.5C 873.522,596.813 868.522,602.146 863.5,607.5C 861.167,611.833 857.833,615.167 853.5,617.5C 851.868,618.446 850.201,619.446 848.5,620.5C 847.614,621.325 847.281,622.325 847.5,623.5C 842.207,625.607 837.54,628.773 833.5,633C 827.431,635.838 821.431,638.671 815.5,641.5C 812.774,641.264 810.441,642.097 808.5,644C 804.084,643.412 799.751,643.746 795.5,645C 794.663,646.011 794.33,647.178 794.5,648.5C 791.833,648.5 789.167,648.5 786.5,648.5C 786.5,647.5 786.5,646.5 786.5,645.5C 785.5,645.5 784.5,645.5 783.5,645.5C 783.5,647.167 783.5,648.833 783.5,650.5C 766.525,652.839 749.525,653.006 732.5,651C 728.368,649.1 724.034,648.267 719.5,648.5C 717.139,648.326 714.806,647.993 712.5,647.5C 710.548,646.215 708.882,644.549 707.5,642.5C 709.059,640.869 711.059,640.036 713.5,640C 708.553,640.014 703.72,640.181 699,640.5C 695.427,638.466 691.594,637.132 687.5,636.5C 686.359,635.661 685.026,634.994 683.5,634.5C 682.833,631.358 682.166,628.358 681.5,625.5C 679.67,610.175 673.336,597.175 662.5,586.5C 662.5,586.167 662.5,585.833 662.5,585.5C 658.541,581.843 654.541,578.176 650.5,574.5C 644.65,569.412 638.317,565.079 631.5,561.5C 630.653,560.034 629.32,559.2 627.5,559C 628.458,557.853 628.125,556.853 626.5,556C 622.019,555.734 617.686,554.901 613.5,553.5C 613.5,551.5 613.5,549.5 613.5,547.5C 612.5,547.5 611.5,547.5 610.5,547.5C 608.36,541.063 606.36,534.396 604.5,527.5C 604.687,521.623 603.687,515.956 601.5,510.5C 601.667,509.5 601.833,508.5 602,507.5C 602.739,509.221 603.573,510.887 604.5,512.5C 604.833,511.167 605.167,509.833 605.5,508.5C 604.172,503.187 602.838,497.854 601.5,492.5C 602.025,484.865 602.358,477.532 602.5,470.5C 602.503,467.398 602.003,467.065 601,469.5C 600.667,478.167 600.333,486.833 600,495.5C 599.041,487.698 598.541,479.865 598.5,472C 599.557,458.487 600.89,444.987 602.5,431.5C 603.628,424.372 605.295,417.372 607.5,410.5C 608.783,405.649 610.449,400.983 612.5,396.5C 615.855,392.789 617.855,388.456 618.5,383.5C 619.458,383.047 620.292,382.381 621,381.5C 622.887,376.462 625.387,371.795 628.5,367.5C 631.422,363.399 634.589,359.399 638,355.5C 638.791,354.255 639.291,352.922 639.5,351.5C 641.118,349.215 643.118,347.215 645.5,345.5C 649.263,342.683 652.597,339.349 655.5,335.5C 656.978,335.762 658.311,335.429 659.5,334.5C 660.364,332.803 661.697,331.637 663.5,331C 664.337,329.989 664.67,328.822 664.5,327.5C 665.552,327.649 666.552,327.483 667.5,327C 668.357,324.981 669.691,323.481 671.5,322.5C 672.3,320.259 673.966,319.259 676.5,319.5C 680.54,317.714 684.207,315.381 687.5,312.5C 696.112,309.3 704.612,305.966 713,302.5C 715.12,303.459 717.287,303.626 719.5,303C 724.374,299.419 729.708,298.585 735.5,300.5C 735.5,299.5 735.5,298.5 735.5,297.5C 741.807,296.923 748.14,296.59 754.5,296.5C 765.852,296.948 777.186,297.615 788.5,298.5 Z"/></g>
<g><path style="opacity:1" fill="#faf5dd" d="M 389.5,296.5 C 395.51,297.557 401.51,298.724 407.5,300C 409.32,300.2 410.653,301.034 411.5,302.5C 407.026,301.111 402.526,300.777 398,301.5C 396.278,301.389 396.112,300.889 397.5,300C 394.47,299.422 391.803,298.255 389.5,296.5 Z"/></g>
<g><path style="opacity:1" fill="#fad68e" d="M 831.5,313.5 C 830.127,313.657 828.793,313.49 827.5,313C 818.303,308.332 808.97,304.165 799.5,300.5C 801.92,300.292 804.253,300.626 806.5,301.5C 807.795,300.902 809.128,300.402 810.5,300C 808.392,299.64 806.392,298.973 804.5,298C 807.349,296.273 810.349,296.106 813.5,297.5C 813.023,298.478 812.357,299.311 811.5,300C 818.057,301.651 824.724,302.651 831.5,303C 827.5,303.333 823.5,303.667 819.5,304C 822.985,307.898 826.985,311.065 831.5,313.5 Z"/></g>
<g><path style="opacity:1" fill="#f7e9be" d="M 332.5,297.5 C 330.924,298.143 329.59,299.143 328.5,300.5C 324.213,301.707 319.88,302.707 315.5,303.5C 315.611,302.883 315.944,302.383 316.5,302C 321.994,300.776 327.328,299.276 332.5,297.5 Z"/></g>
<g><path style="opacity:1" fill="#fbf7e4" d="M 740.5,295.5 C 756.761,294.837 772.761,295.837 788.5,298.5C 777.186,297.615 765.852,296.948 754.5,296.5C 748.14,296.59 741.807,296.923 735.5,297.5C 735.5,298.5 735.5,299.5 735.5,300.5C 729.708,298.585 724.374,299.419 719.5,303C 717.287,303.626 715.12,303.459 713,302.5C 704.612,305.966 696.112,309.3 687.5,312.5C 691.362,309.361 695.695,306.861 700.5,305C 707.053,302.96 713.386,300.793 719.5,298.5C 726.476,297.171 733.476,296.171 740.5,295.5 Z"/></g>
<g><path style="opacity:1" fill="#f9f3d9" d="M 420.5,305.5 C 424.307,306.693 427.974,308.026 431.5,309.5C 429.856,309.714 428.356,309.38 427,308.5C 426.667,309.167 426.333,309.833 426,310.5C 424.11,308.746 422.277,307.08 420.5,305.5 Z"/></g>
<g><path style="opacity:1" fill="#f3e0a9" d="M 433.5,311.5 C 438.861,312.548 443.528,314.881 447.5,318.5C 442.242,317.204 437.575,314.871 433.5,311.5 Z"/></g>
<g><path style="opacity:1" fill="#faf1c8" d="M 687.5,312.5 C 684.207,315.381 680.54,317.714 676.5,319.5C 679.357,315.904 683.024,313.571 687.5,312.5 Z"/></g>
<g><path style="opacity:1" fill="#fcf7e2" d="M 295.5,313.5 C 293.138,316.104 290.305,318.104 287,319.5C 287.305,321.443 287.305,323.443 287,325.5C 286.051,322.8 284.217,321.967 281.5,323C 279.281,324.763 277.281,326.763 275.5,329C 274.207,329.49 272.873,329.657 271.5,329.5C 275.842,325.465 280.509,321.632 285.5,318C 288.736,316.214 292.07,314.714 295.5,313.5 Z"/></g>
<g><path style="opacity:1" fill="#f4db9e" d="M 831.5,315.5 C 834.601,315.692 837.601,316.358 840.5,317.5C 842.936,320.257 845.27,322.923 847.5,325.5C 841.875,322.523 836.542,319.19 831.5,315.5 Z"/></g>
<g><path style="opacity:1" fill="#fbf1d4" d="M 671.5,322.5 C 669.691,323.481 668.357,324.981 667.5,327C 666.552,327.483 665.552,327.649 664.5,327.5C 664.67,328.822 664.337,329.989 663.5,331C 661.697,331.637 660.364,332.803 659.5,334.5C 658.311,335.429 656.978,335.762 655.5,335.5C 658.921,332.907 661.921,329.741 664.5,326C 666.591,324.274 668.924,323.107 671.5,322.5 Z"/></g>
<g><path style="opacity:1" fill="#fbf2d9" d="M 271.5,329.5 C 268.583,331.875 266.583,334.875 265.5,338.5C 264.5,338.5 263.5,338.5 262.5,338.5C 262.815,340.226 262.981,341.893 263,343.5C 261.444,341.365 259.611,341.032 257.5,342.5C 258.896,340.252 260.563,338.086 262.5,336C 265.094,333.235 268.094,331.068 271.5,329.5 Z"/></g>
<g><path style="opacity:1" fill="#fbf8e4" d="M 458.5,327.5 C 459.82,328.942 461.486,329.608 463.5,329.5C 463.5,330.833 463.5,332.167 463.5,333.5C 464.552,333.351 465.552,333.517 466.5,334C 470.729,338.398 475.062,342.564 479.5,346.5C 477.516,346.617 475.85,345.95 474.5,344.5C 473.914,344.709 473.414,345.043 473,345.5C 472.51,344.207 472.343,342.873 472.5,341.5C 469.507,342.135 466.507,342.301 463.5,342C 465.398,341.1 467.064,339.934 468.5,338.5C 467.102,336.102 465.102,334.435 462.5,333.5C 461.039,331.483 459.706,329.483 458.5,327.5 Z"/></g>
<g><path style="opacity:1" fill="#faeccb" d="M 655.5,335.5 C 652.597,339.349 649.263,342.683 645.5,345.5C 647.149,343.825 648.482,341.825 649.5,339.5C 651.133,337.497 653.133,336.164 655.5,335.5 Z"/></g>
<g><path style="opacity:1" fill="#fbf8e8" d="M 863.5,341.5 C 870.97,346.149 876.303,352.483 879.5,360.5C 877.984,359.1 876.317,357.767 874.5,356.5C 872.599,349.699 869.099,348.699 864,353.5C 861.976,351.666 862.142,349.999 864.5,348.5C 866.167,350.167 867.167,349.833 867.5,347.5C 866.115,345.464 864.782,343.464 863.5,341.5 Z"/></g>
<g><path style="opacity:1" fill="#f7e0af" d="M 252.5,347.5 C 248.834,352.342 245.334,357.342 242,362.5C 241.329,363.252 240.496,363.586 239.5,363.5C 242.76,358.55 246.093,353.55 249.5,348.5C 250.417,347.873 251.417,347.539 252.5,347.5 Z"/></g>
<g><path style="opacity:1" fill="#f9d792" d="M 479.5,348.5 C 480.833,348.5 482.167,348.5 483.5,348.5C 483.5,349.5 483.5,350.5 483.5,351.5C 484.5,351.5 485.5,351.5 486.5,351.5C 487.167,355.5 487.833,355.5 488.5,351.5C 489.833,351.5 491.167,351.5 492.5,351.5C 492.433,353.401 492.767,355.234 493.5,357C 492.704,358.092 492.037,359.259 491.5,360.5C 492.942,362.847 494.276,365.18 495.5,367.5C 492.147,365.093 489.481,362.093 487.5,358.5C 484.87,355.172 482.203,351.839 479.5,348.5 Z"/></g>
<g><path style="opacity:1" fill="#f6e1b5" d="M 639.5,351.5 C 639.291,352.922 638.791,354.255 638,355.5C 634.589,359.399 631.422,363.399 628.5,367.5C 628.491,365.692 628.991,364.025 630,362.5C 633.091,358.59 636.258,354.923 639.5,351.5 Z"/></g>
<g><path style="opacity:1" fill="#fcf9ea" d="M 487.5,358.5 C 489.481,362.093 492.147,365.093 495.5,367.5C 499.183,375.856 503.683,383.856 509,391.5C 510.61,393.939 511.444,396.606 511.5,399.5C 510.127,399.343 508.793,399.51 507.5,400C 508.543,404.447 507.876,404.447 505.5,400C 506.944,398.874 507.61,397.374 507.5,395.5C 506.825,392.822 506.158,390.156 505.5,387.5C 504.5,387.5 503.5,387.5 502.5,387.5C 502.5,386.167 502.5,384.833 502.5,383.5C 501.022,383.762 499.689,383.429 498.5,382.5C 499.348,380.591 499.682,378.591 499.5,376.5C 498.5,376.5 497.5,376.5 496.5,376.5C 496.649,377.552 496.483,378.552 496,379.5C 495.228,378.151 494.061,377.318 492.5,377C 493.574,376.261 494.241,375.261 494.5,374C 493.167,372.333 491.833,370.667 490.5,369C 490.735,368.127 491.069,367.293 491.5,366.5C 489.869,363.942 488.535,361.275 487.5,358.5 Z"/></g>
<g><path style="opacity:1" fill="#f8da9b" d="M 628.5,367.5 C 625.387,371.795 622.887,376.462 621,381.5C 620.292,382.381 619.458,383.047 618.5,383.5C 619.146,381.844 619.813,380.177 620.5,378.5C 619.349,376.675 618.682,374.675 618.5,372.5C 619.5,372.5 620.5,372.5 621.5,372.5C 621.651,369.282 622.484,368.949 624,371.5C 625.307,369.808 626.807,368.475 628.5,367.5 Z"/></g>
<g><path style="opacity:1" fill="#fdf9ec" d="M 886.5,369.5 C 890.455,375.372 894.122,381.372 897.5,387.5C 897.5,388.167 897.5,388.833 897.5,389.5C 895.852,388.223 894.018,387.223 892,386.5C 891.216,382.95 890.383,379.45 889.5,376C 888.4,375.568 887.733,376.068 887.5,377.5C 889.993,382.339 889.16,382.673 885,378.5C 885.919,375.716 886.419,372.716 886.5,369.5 Z"/></g>
<g><path style="opacity:1" fill="#f6dea2" d="M 233.5,373.5 C 231.025,377.971 229.025,382.638 227.5,387.5C 226.16,388.867 224.827,390.2 223.5,391.5C 224.394,388.454 224.561,385.454 224,382.5C 225.011,383.337 226.178,383.67 227.5,383.5C 228.844,380.626 230.01,377.626 231,374.5C 231.671,373.748 232.504,373.414 233.5,373.5 Z"/></g>
<g><path style="opacity:1" fill="#f6e2ac" d="M 618.5,383.5 C 617.855,388.456 615.855,392.789 612.5,396.5C 612.421,393.729 612.921,391.063 614,388.5C 616.446,387.555 617.946,385.889 618.5,383.5 Z"/></g>
<g><path style="opacity:1" fill="#789be7" d="M 739.5,399.5 C 753.133,409.803 762.466,423.136 767.5,439.5C 767.182,442.481 768.182,444.815 770.5,446.5C 770.5,446.833 770.5,447.167 770.5,447.5C 770.663,449.857 770.497,452.19 770,454.5C 768.956,453.377 768.29,452.044 768,450.5C 767.482,455.057 768.149,459.391 770,463.5C 770.333,460.833 770.667,458.167 771,455.5C 771.708,456.381 772.542,457.047 773.5,457.5C 773.446,463.956 774.28,470.29 776,476.5C 776.5,484.493 776.666,492.493 776.5,500.5C 775.965,508.246 774.965,515.913 773.5,523.5C 770.598,531.03 767.764,538.696 765,546.5C 763.723,548.747 762.223,550.747 760.5,552.5C 758.989,551.498 757.322,550.831 755.5,550.5C 755.875,554.97 754.041,556.637 750,555.5C 746.078,556.208 744.578,558.541 745.5,562.5C 747.599,561.769 749.599,561.769 751.5,562.5C 749.321,565.564 746.321,566.897 742.5,566.5C 743.449,568.737 744.116,571.071 744.5,573.5C 736.172,581.496 726.506,587.162 715.5,590.5C 706.533,591.383 697.533,591.716 688.5,591.5C 684.297,590.73 680.297,589.396 676.5,587.5C 673.073,585.269 669.74,582.769 666.5,580C 665.207,579.51 663.873,579.343 662.5,579.5C 661.375,577.871 660.041,576.371 658.5,575C 660.159,573.159 662.159,571.992 664.5,571.5C 664.5,570.5 664.5,569.5 664.5,568.5C 662.328,567.199 659.995,566.199 657.5,565.5C 657.649,564.448 657.483,563.448 657,562.5C 655.984,563.634 655.317,563.301 655,561.5C 651.667,563.5 651.667,565.5 655,567.5C 655.893,566.289 656.726,566.289 657.5,567.5C 656.5,568.5 655.5,569.5 654.5,570.5C 652.51,567.512 650.177,564.845 647.5,562.5C 649.117,562.331 650.784,561.997 652.5,561.5C 651.975,560.808 651.308,560.308 650.5,560C 651.428,559.612 652.095,558.945 652.5,558C 651.31,556.192 651.31,554.359 652.5,552.5C 652.547,551 651.881,550 650.5,549.5C 649.191,553.107 648.191,556.774 647.5,560.5C 646.178,560.67 645.011,560.337 644,559.5C 643.567,557.336 644.067,555.336 645.5,553.5C 645.167,552.833 644.833,552.167 644.5,551.5C 643.335,552.491 642.168,553.491 641,554.5C 638.1,552.443 637.934,550.276 640.5,548C 639.939,546.324 638.939,544.991 637.5,544C 637.957,543.586 638.291,543.086 638.5,542.5C 637.757,540.362 637.09,538.196 636.5,536C 637.498,534.001 638.498,532.001 639.5,530C 639.341,526.898 638.674,526.898 637.5,530C 636.035,530.601 635.035,530.101 634.5,528.5C 636.915,526.991 637.081,525.324 635,523.5C 634.333,524.833 633.667,526.167 633,527.5C 632.667,527.167 632.333,526.833 632,526.5C 631.167,527.5 630.333,528.5 629.5,529.5C 629.273,524.876 627.273,521.543 623.5,519.5C 619.487,500.882 618.487,482.216 620.5,463.5C 622.439,459.631 623.439,455.297 623.5,450.5C 623.5,449.5 623.5,448.5 623.5,447.5C 626.228,444.032 627.895,440.032 628.5,435.5C 629.777,430.279 632.111,425.612 635.5,421.5C 638.25,421.382 640.25,420.049 641.5,417.5C 641.147,412.777 643.48,409.777 648.5,408.5C 649.251,409.376 649.751,410.376 650,411.5C 650.564,409.438 650.064,407.605 648.5,406C 650.04,403.64 651.707,401.474 653.5,399.5C 654.991,399.099 656.658,398.932 658.5,399C 660.007,395.34 662.341,392.507 665.5,390.5C 670.193,391.513 674.86,391.513 679.5,390.5C 679.5,389.5 679.5,388.5 679.5,387.5C 682.394,387.556 685.061,388.39 687.5,390C 696.226,390.507 704.892,391.507 713.5,393C 712.04,393.811 711.707,394.645 712.5,395.5C 715.925,394.295 719.258,394.629 722.5,396.5C 728.902,394.994 728.568,393.828 721.5,393C 727.894,390.531 731.561,392.697 732.5,399.5C 733.873,399.343 735.207,399.51 736.5,400C 735.978,400.561 735.645,401.228 735.5,402C 736.707,403.3 737.374,404.8 737.5,406.5C 738.833,406.5 740.167,406.5 741.5,406.5C 741.5,405.5 741.5,404.5 741.5,403.5C 739.365,403.853 738.032,403.02 737.5,401C 737.836,399.97 738.503,399.47 739.5,399.5 Z"/></g>
<g><path style="opacity:1" fill="#859fd5" d="M 271.5,388.5 C 268.961,391.084 266.294,393.584 263.5,396C 260.91,397.445 258.243,398.612 255.5,399.5C 260.129,394.849 265.463,391.182 271.5,388.5 Z"/></g>
<g><path style="opacity:1" fill="#80a0e0" d="M 331.5,391.5 C 328.979,391.56 326.646,390.894 324.5,389.5C 319.563,392.168 314.23,393.168 308.5,392.5C 308.5,391.5 308.5,390.5 308.5,389.5C 312.048,389.905 315.381,389.405 318.5,388C 308.325,384.416 297.992,383.916 287.5,386.5C 294.142,387.331 300.809,387.831 307.5,388C 298.972,390.929 290.306,391.262 281.5,389C 283.815,387.632 283.815,386.799 281.5,386.5C 278.429,388.18 275.096,388.847 271.5,388.5C 279.361,384.316 287.861,381.982 297,381.5C 309.591,381.278 321.091,384.612 331.5,391.5 Z"/></g>
<g><path style="opacity:1" fill="#7c9fe0" d="M 739.5,399.5 C 738.503,399.47 737.836,399.97 737.5,401C 738.032,403.02 739.365,403.853 741.5,403.5C 741.5,404.5 741.5,405.5 741.5,406.5C 740.167,406.5 738.833,406.5 737.5,406.5C 737.374,404.8 736.707,403.3 735.5,402C 735.645,401.228 735.978,400.561 736.5,400C 735.207,399.51 733.873,399.343 732.5,399.5C 731.561,392.697 727.894,390.531 721.5,393C 728.568,393.828 728.902,394.994 722.5,396.5C 719.258,394.629 715.925,394.295 712.5,395.5C 711.707,394.645 712.04,393.811 713.5,393C 704.892,391.507 696.226,390.507 687.5,390C 685.061,388.39 682.394,387.556 679.5,387.5C 679.5,388.5 679.5,389.5 679.5,390.5C 674.86,391.513 670.193,391.513 665.5,390.5C 670.07,386.636 675.403,384.302 681.5,383.5C 682.335,384.943 683.668,385.943 685.5,386.5C 696.798,386.556 707.798,388.223 718.5,391.5C 719.287,390.758 719.953,389.925 720.5,389C 709.306,386.623 698.306,384.789 687.5,383.5C 690.258,382.182 693.424,381.515 697,381.5C 713.501,382.314 727.668,388.314 739.5,399.5 Z"/></g>
<g><path style="opacity:1" fill="#7a9ae9" d="M 681.5,383.5 C 683.5,383.5 685.5,383.5 687.5,383.5C 698.306,384.789 709.306,386.623 720.5,389C 719.953,389.925 719.287,390.758 718.5,391.5C 707.798,388.223 696.798,386.556 685.5,386.5C 683.668,385.943 682.335,384.943 681.5,383.5 Z"/></g>
<g><path style="opacity:1" fill="#789be7" d="M 331.5,391.5 C 336.428,394.099 340.761,397.432 344.5,401.5C 344.489,403.017 343.823,404.184 342.5,405C 343.899,405.595 345.232,405.428 346.5,404.5C 347.004,407.342 348.671,408.675 351.5,408.5C 352.794,409.29 353.961,410.29 355,411.5C 357.086,414.403 358.919,417.403 360.5,420.5C 360.5,421.5 360.5,422.5 360.5,423.5C 359.5,423.5 358.5,423.5 357.5,423.5C 357.454,419.765 355.787,418.432 352.5,419.5C 357.805,423.746 359.472,429.08 357.5,435.5C 358.5,435.5 359.5,435.5 360.5,435.5C 360.5,434.167 360.5,432.833 360.5,431.5C 361.833,431.5 363.167,431.5 364.5,431.5C 364.059,435.036 363.059,438.37 361.5,441.5C 361.833,442.5 362.167,443.5 362.5,444.5C 364.131,442.941 364.964,440.941 365,438.5C 366,438.167 367,437.833 368,437.5C 369.112,439.39 369.946,441.39 370.5,443.5C 369.56,446.132 369.393,448.798 370,451.5C 370.202,449.744 370.702,448.078 371.5,446.5C 372.183,446.863 372.85,447.196 373.5,447.5C 373.5,447.833 373.5,448.167 373.5,448.5C 374.293,452.88 375.293,457.214 376.5,461.5C 376.23,478.244 375.23,494.911 373.5,511.5C 373.913,514.232 374.58,516.899 375.5,519.5C 375.167,520.5 374.833,521.5 374.5,522.5C 373.914,522.291 373.414,521.957 373,521.5C 372.667,524.5 372.333,527.5 372,530.5C 369.491,526.223 368.158,521.556 368,516.5C 366.804,522.992 367.638,529.158 370.5,535C 369.383,537.731 368.717,540.565 368.5,543.5C 364.995,550.216 361.161,556.883 357,563.5C 355.296,565.373 353.463,567.04 351.5,568.5C 350.167,568.5 348.833,568.5 347.5,568.5C 347.5,569.833 347.5,571.167 347.5,572.5C 344.843,572.838 342.51,572.171 340.5,570.5C 340.167,570.833 339.833,571.167 339.5,571.5C 341.756,572.421 342.756,574.088 342.5,576.5C 341.167,576.5 339.833,576.5 338.5,576.5C 338.5,575.5 338.5,574.5 338.5,573.5C 337.5,573.5 336.5,573.5 335.5,573.5C 335.449,575.57 336.115,577.403 337.5,579C 336.863,580.713 335.863,580.879 334.5,579.5C 333.476,580.853 332.143,581.52 330.5,581.5C 330.5,582.5 330.5,583.5 330.5,584.5C 327.975,583.36 325.308,582.693 322.5,582.5C 322.5,583.5 322.5,584.5 322.5,585.5C 320.076,585.192 317.743,585.526 315.5,586.5C 317.332,587.057 318.665,588.057 319.5,589.5C 314.691,588.787 310.024,587.454 305.5,585.5C 296.972,588.301 288.306,588.968 279.5,587.5C 278.04,585.537 276.373,583.704 274.5,582C 273.101,581.405 271.768,581.572 270.5,582.5C 269.231,580.82 267.564,579.653 265.5,579C 264.391,577.187 265.058,576.354 267.5,576.5C 267.5,575.5 267.5,574.5 267.5,573.5C 264.996,574.639 262.33,575.306 259.5,575.5C 251.831,569.324 245.331,561.99 240,553.5C 233.641,542.926 229.141,531.593 226.5,519.5C 226.075,514.923 225.075,510.59 223.5,506.5C 223.058,502.846 222.724,499.179 222.5,495.5C 222.354,484.813 222.688,474.146 223.5,463.5C 223.5,461.5 223.5,459.5 223.5,457.5C 225.41,454.548 226.41,451.214 226.5,447.5C 227.907,441.814 229.907,436.481 232.5,431.5C 234.257,430.708 235.591,429.375 236.5,427.5C 237.167,428.833 237.833,430.167 238.5,431.5C 239.519,429.049 239.519,426.549 238.5,424C 239.147,418.666 240.981,418.166 244,422.5C 246.257,421.91 247.924,420.577 249,418.5C 251.161,415.676 252.661,412.509 253.5,409C 252.728,407.779 251.728,406.779 250.5,406C 252.79,404.223 254.457,402.056 255.5,399.5C 258.243,398.612 260.91,397.445 263.5,396C 266.294,393.584 268.961,391.084 271.5,388.5C 275.096,388.847 278.429,388.18 281.5,386.5C 283.815,386.799 283.815,387.632 281.5,389C 290.306,391.262 298.972,390.929 307.5,388C 300.809,387.831 294.142,387.331 287.5,386.5C 297.992,383.916 308.325,384.416 318.5,388C 315.381,389.405 312.048,389.905 308.5,389.5C 308.5,390.5 308.5,391.5 308.5,392.5C 314.23,393.168 319.563,392.168 324.5,389.5C 326.646,390.894 328.979,391.56 331.5,391.5 Z"/></g>
<g><path style="opacity:1" fill="#f3e0ab" d="M 897.5,387.5 C 899.975,391.036 901.641,395.036 902.5,399.5C 900.787,396.14 899.121,392.807 897.5,389.5C 897.5,388.833 897.5,388.167 897.5,387.5 Z"/></g>
<g><path style="opacity:1" fill="#87a1d6" d="M 665.5,390.5 C 662.341,392.507 660.007,395.34 658.5,399C 656.658,398.932 654.991,399.099 653.5,399.5C 656.707,395.551 660.707,392.551 665.5,390.5 Z"/></g>
<g><path style="opacity:1" fill="#80a0d1" d="M 344.5,401.5 C 347.833,402.833 350.167,405.167 351.5,408.5C 348.671,408.675 347.004,407.342 346.5,404.5C 345.232,405.428 343.899,405.595 342.5,405C 343.823,404.184 344.489,403.017 344.5,401.5 Z"/></g>
<g><path style="opacity:1" fill="#829fda" d="M 653.5,399.5 C 651.707,401.474 650.04,403.64 648.5,406C 650.064,407.605 650.564,409.438 650,411.5C 649.751,410.376 649.251,409.376 648.5,408.5C 643.48,409.777 641.147,412.777 641.5,417.5C 640.25,420.049 638.25,421.382 635.5,421.5C 639.436,413.383 644.769,406.216 651.5,400C 652.094,399.536 652.761,399.369 653.5,399.5 Z"/></g>
<g><path style="opacity:1" fill="#fdfbed" d="M 223.5,395.5 C 223.33,396.822 223.663,397.989 224.5,399C 222.198,401.467 220.531,404.3 219.5,407.5C 220.279,410.561 220.612,413.561 220.5,416.5C 220.192,417.308 219.692,417.975 219,418.5C 218.073,415.294 216.907,414.961 215.5,417.5C 215.704,414.482 216.037,411.482 216.5,408.5C 218.506,405.14 220.006,401.474 221,397.5C 221.708,396.619 222.542,395.953 223.5,395.5 Z"/></g>
<g><path style="opacity:1" fill="#7c9ddf" d="M 255.5,399.5 C 254.457,402.056 252.79,404.223 250.5,406C 251.728,406.779 252.728,407.779 253.5,409C 252.661,412.509 251.161,415.676 249,418.5C 247.924,420.577 246.257,421.91 244,422.5C 240.981,418.166 239.147,418.666 238.5,424C 239.519,426.549 239.519,429.049 238.5,431.5C 237.833,430.167 237.167,428.833 236.5,427.5C 235.591,429.375 234.257,430.708 232.5,431.5C 237.226,418.712 244.893,408.046 255.5,399.5 Z"/></g>
<g><path style="opacity:1" fill="#f6e7b8" d="M 216.5,408.5 C 216.037,411.482 215.704,414.482 215.5,417.5C 214.077,420.701 213.077,424.034 212.5,427.5C 211.833,428.833 211.167,430.167 210.5,431.5C 211.5,423.472 213.5,415.805 216.5,408.5 Z"/></g>
<g><path style="opacity:1" fill="#f9e9c6" d="M 906.5,410.5 C 907.117,410.611 907.617,410.944 908,411.5C 909.697,417.082 910.864,422.749 911.5,428.5C 908.142,423.089 906.475,417.089 906.5,410.5 Z"/></g>
<g><path style="opacity:1" fill="#7b9ee0" d="M 360.5,420.5 C 366.128,428.759 370.461,437.759 373.5,447.5C 372.85,447.196 372.183,446.863 371.5,446.5C 370.702,448.078 370.202,449.744 370,451.5C 369.393,448.798 369.56,446.132 370.5,443.5C 369.946,441.39 369.112,439.39 368,437.5C 367,437.833 366,438.167 365,438.5C 364.964,440.941 364.131,442.941 362.5,444.5C 362.167,443.5 361.833,442.5 361.5,441.5C 363.059,438.37 364.059,435.036 364.5,431.5C 363.167,431.5 361.833,431.5 360.5,431.5C 360.5,432.833 360.5,434.167 360.5,435.5C 359.5,435.5 358.5,435.5 357.5,435.5C 359.472,429.08 357.805,423.746 352.5,419.5C 355.787,418.432 357.454,419.765 357.5,423.5C 358.5,423.5 359.5,423.5 360.5,423.5C 360.5,422.5 360.5,421.5 360.5,420.5 Z"/></g>
<g><path style="opacity:1" fill="#f6d998" d="M 520.5,425.5 C 521.757,427.929 523.09,430.429 524.5,433C 524.006,434.462 523.673,435.962 523.5,437.5C 525.02,441.623 525.853,445.956 526,450.5C 526.459,469.517 526.792,488.517 527,507.5C 526.878,505.563 526.045,504.23 524.5,503.5C 524.5,500.833 524.5,498.167 524.5,495.5C 525.661,481.006 525.828,466.339 525,451.5C 523.817,444.719 522.317,438.052 520.5,431.5C 520.5,429.5 520.5,427.5 520.5,425.5 Z"/></g>
<g><path style="opacity:1" fill="#f4e8bc" d="M 911.5,431.5 C 913.256,432.552 913.923,434.219 913.5,436.5C 911.787,435.365 911.12,433.698 911.5,431.5 Z"/></g>
<g><path style="opacity:1" fill="#a1b7da" d="M 628.5,435.5 C 627.895,440.032 626.228,444.032 623.5,447.5C 624.406,443.099 626.072,439.099 628.5,435.5 Z"/></g>
<g><path style="opacity:1" fill="#98add4" d="M 767.5,439.5 C 769.834,441.176 770.834,443.509 770.5,446.5C 768.182,444.815 767.182,442.481 767.5,439.5 Z"/></g>
<g><path style="opacity:1" fill="#aec2e4" d="M 226.5,447.5 C 226.41,451.214 225.41,454.548 223.5,457.5C 223.723,453.838 224.723,450.505 226.5,447.5 Z"/></g>
<g><path style="opacity:1" fill="#afc0e2" d="M 373.5,448.5 C 375.61,452.502 376.943,456.835 377.5,461.5C 377.167,461.5 376.833,461.5 376.5,461.5C 375.293,457.214 374.293,452.88 373.5,448.5 Z"/></g>
<g><path style="opacity:1" fill="#81a0dc" d="M 770.5,447.5 C 772.072,450.215 773.072,453.215 773.5,456.5C 773.5,456.833 773.5,457.167 773.5,457.5C 772.542,457.047 771.708,456.381 771,455.5C 770.667,458.167 770.333,460.833 770,463.5C 768.149,459.391 767.482,455.057 768,450.5C 768.29,452.044 768.956,453.377 770,454.5C 770.497,452.19 770.663,449.857 770.5,447.5 Z"/></g>
<g><path style="opacity:1" fill="#fbf9e8" d="M 212.5,427.5 C 211.199,436.944 209.866,446.444 208.5,456C 208.337,458.617 208.671,461.284 209.5,464C 207.757,471.395 207.09,478.895 207.5,486.5C 206.251,475.981 206.251,465.314 207.5,454.5C 207.028,446.619 208.028,438.952 210.5,431.5C 211.167,430.167 211.833,428.833 212.5,427.5 Z"/></g>
<g><path style="opacity:1" fill="#f5e1b2" d="M 913.5,437.5 C 915.166,442.245 916.333,447.245 917,452.5C 917.667,463.833 917.667,475.167 917,486.5C 916.819,489.695 916.319,492.695 915.5,495.5C 915.953,476.109 915.287,456.775 913.5,437.5 Z"/></g>
<g><path style="opacity:1" fill="#94a8d9" d="M 623.5,450.5 C 623.439,455.297 622.439,459.631 620.5,463.5C 620.425,458.808 621.425,454.474 623.5,450.5 Z"/></g>
<g><path style="opacity:1" fill="#f2e2b4" d="M 207.5,454.5 C 206.251,465.314 206.251,475.981 207.5,486.5C 207.5,487.833 207.5,489.167 207.5,490.5C 206.883,490.389 206.383,490.056 206,489.5C 205.5,480.84 205.334,472.173 205.5,463.5C 205.068,460.123 205.735,457.123 207.5,454.5 Z"/></g>
<g><path style="opacity:1" fill="#fdfcf1" d="M 602.5,431.5 C 600.89,444.987 599.557,458.487 598.5,472C 598.541,479.865 599.041,487.698 600,495.5C 600.333,486.833 600.667,478.167 601,469.5C 602.003,467.065 602.503,467.398 602.5,470.5C 602.358,477.532 602.025,484.865 601.5,492.5C 602.838,497.854 604.172,503.187 605.5,508.5C 605.167,509.833 604.833,511.167 604.5,512.5C 603.573,510.887 602.739,509.221 602,507.5C 601.833,508.5 601.667,509.5 601.5,510.5C 603.687,515.956 604.687,521.623 604.5,527.5C 604.167,527.5 603.833,527.5 603.5,527.5C 603.713,524.549 603.046,521.882 601.5,519.5C 597.727,498.001 596.56,476.334 598,454.5C 599.37,446.686 600.87,439.019 602.5,431.5 Z"/></g>
<g><path style="opacity:1" fill="#fbf6dc" d="M 520.5,431.5 C 522.317,438.052 523.817,444.719 525,451.5C 525.828,466.339 525.661,481.006 524.5,495.5C 524.667,482.163 524.5,468.829 524,455.5C 522.493,447.512 521.326,439.512 520.5,431.5 Z"/></g>
<g><path style="opacity:1" fill="#b4c3e5" d="M 377.5,463.5 C 378.895,467.591 379.728,471.924 380,476.5C 380.823,485.01 380.657,493.344 379.5,501.5C 379.679,488.772 379.012,476.106 377.5,463.5 Z"/></g>
<g><path style="opacity:1" fill="#89a3d4" d="M 223.5,463.5 C 222.688,474.146 222.354,484.813 222.5,495.5C 221.834,491.18 221.501,486.68 221.5,482C 221.289,475.586 221.955,469.419 223.5,463.5 Z"/></g>
<g><path style="opacity:1" fill="#92acda" d="M 773.5,456.5 C 777.033,470.816 778.366,485.482 777.5,500.5C 777.167,500.5 776.833,500.5 776.5,500.5C 776.666,492.493 776.5,484.493 776,476.5C 774.28,470.29 773.446,463.956 773.5,457.5C 773.5,457.167 773.5,456.833 773.5,456.5 Z"/></g>
<g><path style="opacity:1" fill="#7a9ddf" d="M 376.5,461.5 C 376.833,461.5 377.167,461.5 377.5,461.5C 377.5,462.167 377.5,462.833 377.5,463.5C 379.012,476.106 379.679,488.772 379.5,501.5C 379.5,502.833 379.5,504.167 379.5,505.5C 377.882,508.171 377.215,511.171 377.5,514.5C 377.315,518.244 376.648,521.911 375.5,525.5C 372.915,531.52 370.582,537.52 368.5,543.5C 368.717,540.565 369.383,537.731 370.5,535C 367.638,529.158 366.804,522.992 368,516.5C 368.158,521.556 369.491,526.223 372,530.5C 372.333,527.5 372.667,524.5 373,521.5C 373.414,521.957 373.914,522.291 374.5,522.5C 374.833,521.5 375.167,520.5 375.5,519.5C 374.58,516.899 373.913,514.232 373.5,511.5C 375.23,494.911 376.23,478.244 376.5,461.5 Z"/></g>
<g><path style="opacity:1" fill="#f4dca8" d="M 607.5,410.5 C 605.295,417.372 603.628,424.372 602.5,431.5C 600.87,439.019 599.37,446.686 598,454.5C 596.56,476.334 597.727,498.001 601.5,519.5C 599.275,512.792 597.775,505.792 597,498.5C 595.972,476.107 596.639,453.774 599,431.5C 601.772,425.136 603.772,418.469 605,411.5C 605.671,410.748 606.504,410.414 607.5,410.5 Z"/></g>
<g><path style="opacity:1" fill="#f9d894" d="M 205.5,463.5 C 205.334,472.173 205.5,480.84 206,489.5C 206.383,490.056 206.883,490.389 207.5,490.5C 208.277,499.508 209.277,508.508 210.5,517.5C 209.85,517.196 209.183,516.863 208.5,516.5C 207.509,512.555 207.176,508.555 207.5,504.5C 206.448,504.649 205.448,504.483 204.5,504C 204.833,503.667 205.167,503.333 205.5,503C 204.643,502.311 203.977,501.478 203.5,500.5C 203.808,488.098 204.474,475.765 205.5,463.5 Z"/></g>
<g><path style="opacity:1" fill="#f8e3b4" d="M 524.5,495.5 C 524.5,498.167 524.5,500.833 524.5,503.5C 524.037,506.33 523.371,508.997 522.5,511.5C 522.668,505.966 523.335,500.633 524.5,495.5 Z"/></g>
<g><path style="opacity:1" fill="#f7e3b7" d="M 915.5,495.5 C 915.625,502.952 914.792,510.285 913,517.5C 912.617,518.056 912.117,518.389 911.5,518.5C 912.116,510.487 913.449,502.82 915.5,495.5 Z"/></g>
<g><path style="opacity:1" fill="#d4e0f5" d="M 776.5,500.5 C 776.833,500.5 777.167,500.5 777.5,500.5C 777.453,508.522 776.12,516.189 773.5,523.5C 774.965,515.913 775.965,508.246 776.5,500.5 Z"/></g>
<g><path style="opacity:1" fill="#8ca3d5" d="M 223.5,506.5 C 225.075,510.59 226.075,514.923 226.5,519.5C 224.124,515.607 223.124,511.273 223.5,506.5 Z"/></g>
<g><path style="opacity:1" fill="#bbc7eb" d="M 379.5,505.5 C 379.324,508.727 378.657,511.727 377.5,514.5C 377.215,511.171 377.882,508.171 379.5,505.5 Z"/></g>
<g><path style="opacity:1" fill="#fbf0d4" d="M 520.5,519.5 C 520.258,523.479 519.258,527.146 517.5,530.5C 516.807,526.206 517.807,522.539 520.5,519.5 Z"/></g>
<g><path style="opacity:1" fill="#f5e3b8" d="M 517.5,531.5 C 516.761,536.599 515.595,541.599 514,546.5C 513.292,547.381 512.458,548.047 511.5,548.5C 512.758,542.409 514.758,536.742 517.5,531.5 Z"/></g>
<g><path style="opacity:1" fill="#93623c" d="M 543.5,547.5 C 543.5,547.167 543.5,546.833 543.5,546.5C 555.838,546.333 568.171,546.5 580.5,547C 583.036,547.186 585.369,547.686 587.5,548.5C 572.851,547.649 558.184,547.315 543.5,547.5 Z"/></g>
<g><path style="opacity:1" fill="#f7cd8e" d="M 591.5,548.5 C 590.167,548.5 588.833,548.5 587.5,548.5C 585.369,547.686 583.036,547.186 580.5,547C 568.171,546.5 555.838,546.333 543.5,546.5C 550.091,544.628 557.091,543.628 564.5,543.5C 572.452,544.766 580.452,545.599 588.5,546C 590.119,546.236 591.119,547.069 591.5,548.5 Z"/></g>
<g><path style="opacity:1" fill="#f5d392" d="M 603.5,527.5 C 603.833,527.5 604.167,527.5 604.5,527.5C 606.36,534.396 608.36,541.063 610.5,547.5C 611.15,549.435 611.483,551.435 611.5,553.5C 605.083,551.719 598.75,550.052 592.5,548.5C 595.583,547.934 598.583,547.934 601.5,548.5C 601.736,547.753 602.07,546.92 602.5,546C 604.134,545.506 605.801,545.34 607.5,545.5C 607.5,546.5 607.5,547.5 607.5,548.5C 606.022,548.238 604.689,548.571 603.5,549.5C 606.813,551.254 608.48,550.254 608.5,546.5C 606.204,540.359 604.537,534.026 603.5,527.5 Z"/></g>
<g><path style="opacity:1" fill="#f9d795" d="M 909.5,527.5 C 908.988,531.358 908.322,535.191 907.5,539C 907.691,541.05 908.358,542.883 909.5,544.5C 907.615,545.197 907.282,546.197 908.5,547.5C 907.609,548.59 906.609,548.59 905.5,547.5C 904.17,549.347 904.503,550.847 906.5,552C 905.809,553.067 905.309,554.234 905,555.5C 904.685,552.853 903.518,552.187 901.5,553.5C 901.036,555.975 900.036,557.975 898.5,559.5C 902.746,548.985 906.413,538.318 909.5,527.5 Z"/></g>
<g><path style="opacity:1" fill="#f4e8e0" d="M 610.5,547.5 C 611.5,547.5 612.5,547.5 613.5,547.5C 613.5,549.5 613.5,551.5 613.5,553.5C 617.686,554.901 622.019,555.734 626.5,556C 628.125,556.853 628.458,557.853 627.5,559C 629.32,559.2 630.653,560.034 631.5,561.5C 624.942,558.645 618.275,555.979 611.5,553.5C 611.483,551.435 611.15,549.435 610.5,547.5 Z"/></g>
<g><path style="opacity:1" fill="#7b9dde" d="M 760.5,552.5 C 756.694,560.642 751.361,567.642 744.5,573.5C 744.116,571.071 743.449,568.737 742.5,566.5C 746.321,566.897 749.321,565.564 751.5,562.5C 749.599,561.769 747.599,561.769 745.5,562.5C 744.578,558.541 746.078,556.208 750,555.5C 754.041,556.637 755.875,554.97 755.5,550.5C 757.322,550.831 758.989,551.498 760.5,552.5 Z"/></g>
<g><path style="opacity:1" fill="#fbf4db" d="M 222.5,553.5 C 224.017,553.511 225.184,554.177 226,555.5C 227.355,561.066 229.188,566.399 231.5,571.5C 230.542,571.047 229.708,570.381 229,569.5C 226.731,564.191 224.565,558.857 222.5,553.5 Z"/></g>
<g><path style="opacity:1" fill="#f6eddd" d="M 511.5,548.5 C 511.5,550.167 511.5,551.833 511.5,553.5C 510.29,553.932 509.29,554.599 508.5,555.5C 504.675,556.441 501.009,557.774 497.5,559.5C 497.5,558.5 497.5,557.5 497.5,556.5C 500.601,556.308 503.601,555.642 506.5,554.5C 506.786,551.29 508.453,549.29 511.5,548.5 Z"/></g>
<g><path style="opacity:1" fill="#744e42" d="M 508.5,555.5 C 504.12,558.855 499.12,560.855 493.5,561.5C 494.514,560.326 495.847,559.66 497.5,559.5C 501.009,557.774 504.675,556.441 508.5,555.5 Z"/></g>
<g><path style="opacity:1" fill="#7c9de0" d="M 623.5,519.5 C 627.273,521.543 629.273,524.876 629.5,529.5C 630.333,528.5 631.167,527.5 632,526.5C 632.333,526.833 632.667,527.167 633,527.5C 633.667,526.167 634.333,524.833 635,523.5C 637.081,525.324 636.915,526.991 634.5,528.5C 635.035,530.101 636.035,530.601 637.5,530C 638.674,526.898 639.341,526.898 639.5,530C 638.498,532.001 637.498,534.001 636.5,536C 637.09,538.196 637.757,540.362 638.5,542.5C 638.291,543.086 637.957,543.586 637.5,544C 638.939,544.991 639.939,546.324 640.5,548C 637.934,550.276 638.1,552.443 641,554.5C 642.168,553.491 643.335,552.491 644.5,551.5C 644.833,552.167 645.167,552.833 645.5,553.5C 644.067,555.336 643.567,557.336 644,559.5C 645.011,560.337 646.178,560.67 647.5,560.5C 648.191,556.774 649.191,553.107 650.5,549.5C 651.881,550 652.547,551 652.5,552.5C 651.31,554.359 651.31,556.192 652.5,558C 652.095,558.945 651.428,559.612 650.5,560C 651.308,560.308 651.975,560.808 652.5,561.5C 650.784,561.997 649.117,562.331 647.5,562.5C 650.177,564.845 652.51,567.512 654.5,570.5C 655.5,569.5 656.5,568.5 657.5,567.5C 656.726,566.289 655.893,566.289 655,567.5C 651.667,565.5 651.667,563.5 655,561.5C 655.317,563.301 655.984,563.634 657,562.5C 657.483,563.448 657.649,564.448 657.5,565.5C 659.995,566.199 662.328,567.199 664.5,568.5C 664.5,569.5 664.5,570.5 664.5,571.5C 662.159,571.992 660.159,573.159 658.5,575C 660.041,576.371 661.375,577.871 662.5,579.5C 652.52,573.019 644.353,564.686 638,554.5C 631.5,543.471 626.667,531.805 623.5,519.5 Z"/></g>
<g><path style="opacity:1" fill="#839fd8" d="M 279.5,587.5 C 271.62,585.538 264.953,581.538 259.5,575.5C 262.33,575.306 264.996,574.639 267.5,573.5C 267.5,574.5 267.5,575.5 267.5,576.5C 265.058,576.354 264.391,577.187 265.5,579C 267.564,579.653 269.231,580.82 270.5,582.5C 271.768,581.572 273.101,581.405 274.5,582C 276.373,583.704 278.04,585.537 279.5,587.5 Z"/></g>
<g><path style="opacity:1" fill="#724139" d="M 650.5,574.5 C 654.541,578.176 658.541,581.843 662.5,585.5C 661.448,585.649 660.448,585.483 659.5,585C 657.83,582.441 655.497,580.775 652.5,580C 650.845,578.556 650.178,576.722 650.5,574.5 Z"/></g>
<g><path style="opacity:1" fill="#87a1d1" d="M 662.5,579.5 C 663.873,579.343 665.207,579.51 666.5,580C 669.74,582.769 673.073,585.269 676.5,587.5C 671.103,586.101 666.436,583.434 662.5,579.5 Z"/></g>
<g><path style="opacity:1" fill="#7d9bda" d="M 351.5,568.5 C 343.158,578.764 332.492,585.764 319.5,589.5C 318.665,588.057 317.332,587.057 315.5,586.5C 317.743,585.526 320.076,585.192 322.5,585.5C 322.5,584.5 322.5,583.5 322.5,582.5C 325.308,582.693 327.975,583.36 330.5,584.5C 330.5,583.5 330.5,582.5 330.5,581.5C 332.143,581.52 333.476,580.853 334.5,579.5C 335.863,580.879 336.863,580.713 337.5,579C 336.115,577.403 335.449,575.57 335.5,573.5C 336.5,573.5 337.5,573.5 338.5,573.5C 338.5,574.5 338.5,575.5 338.5,576.5C 339.833,576.5 341.167,576.5 342.5,576.5C 342.756,574.088 341.756,572.421 339.5,571.5C 339.833,571.167 340.167,570.833 340.5,570.5C 342.51,572.171 344.843,572.838 347.5,572.5C 347.5,571.167 347.5,569.833 347.5,568.5C 348.833,568.5 350.167,568.5 351.5,568.5 Z"/></g>
<g><path style="opacity:1" fill="#7f9edd" d="M 319.5,589.5 C 309.09,592.732 298.423,593.232 287.5,591C 284.401,590.613 281.734,589.446 279.5,587.5C 288.306,588.968 296.972,588.301 305.5,585.5C 310.024,587.454 314.691,588.787 319.5,589.5 Z"/></g>
<g><path style="opacity:1" fill="#f7e2b2" d="M 889.5,575.5 C 887.363,580.978 884.03,585.645 879.5,589.5C 882.453,584.55 885.786,579.883 889.5,575.5 Z"/></g>
<g><path style="opacity:1" fill="#c5d4e1" d="M 715.5,590.5 C 710.315,592.46 704.815,593.46 699,593.5C 695.218,593.621 691.718,592.954 688.5,591.5C 697.533,591.716 706.533,591.383 715.5,590.5 Z"/></g>
<g><path style="opacity:1" fill="#f5e2b3" d="M 878.5,591.5 C 875.216,596.623 871.716,601.623 868,606.5C 866.644,607.38 865.144,607.714 863.5,607.5C 868.522,602.146 873.522,596.813 878.5,591.5 Z"/></g>
<g><path style="opacity:1" fill="#713e2e" d="M 662.5,586.5 C 673.336,597.175 679.67,610.175 681.5,625.5C 681.5,627.167 681.5,628.833 681.5,630.5C 680.129,626.345 678.962,622.012 678,617.5C 675.452,613.737 673.452,609.737 672,605.5C 671.173,606.662 670.34,607.829 669.5,609C 669.942,611.365 669.109,613.532 667,615.5C 665.988,613.136 664.655,611.802 663,611.5C 662.505,609.527 662.338,607.527 662.5,605.5C 657.939,605.024 657.272,603.024 660.5,599.5C 656.273,596.54 656.606,594.54 661.5,593.5C 662.288,597.315 663.621,600.982 665.5,604.5C 667.017,605.911 668.351,605.744 669.5,604C 666.919,601.84 666.919,599.674 669.5,597.5C 667.968,593.241 664.968,591.074 660.5,591C 662.037,589.89 662.703,588.39 662.5,586.5 Z"/></g>
<g><path style="opacity:1" fill="#f7daa1" d="M 248.5,596.5 C 250.118,598.785 252.118,600.785 254.5,602.5C 255.452,604.045 255.785,605.712 255.5,607.5C 250.624,605.635 248.291,601.969 248.5,596.5 Z"/></g>
<g><path style="opacity:1" fill="#6f483c" d="M 447.5,598.5 C 446.699,602.408 444.865,605.741 442,608.5C 441.808,610.577 441.308,612.577 440.5,614.5C 439.735,615.612 438.735,616.279 437.5,616.5C 439.606,609.75 442.939,603.75 447.5,598.5 Z"/></g>
<g><path style="opacity:1" fill="#fdcd8b" d="M 175.5,619.5 C 167.512,618.667 159.512,618.501 151.5,619C 146.896,620.061 142.229,620.727 137.5,621C 133.939,622.232 130.606,623.732 127.5,625.5C 125.716,625.893 124.05,626.559 122.5,627.5C 122.414,626.504 122.748,625.671 123.5,625C 127.945,622.443 132.611,620.443 137.5,619C 145.982,618.194 154.482,617.694 163,617.5C 167.557,617.509 171.724,618.175 175.5,619.5 Z"/></g>
<g><path style="opacity:1" fill="#f2a277" d="M 1002.5,628.5 C 997.64,627.012 992.64,626.179 987.5,626C 983.324,621.989 978.491,620.823 973,622.5C 961.454,620.466 949.954,620.966 938.5,624C 934.868,625.357 931.202,626.524 927.5,627.5C 938.973,621.175 951.473,618.175 965,618.5C 974.969,619.634 984.803,621.467 994.5,624C 997.448,625.237 1000.11,626.737 1002.5,628.5 Z"/></g>
<g><path style="opacity:1" fill="#f6deab" d="M 853.5,617.5 C 853.133,621.201 851.133,623.201 847.5,623.5C 847.281,622.325 847.614,621.325 848.5,620.5C 850.201,619.446 851.868,618.446 853.5,617.5 Z"/></g>
<g><path style="opacity:1" fill="#f8da9e" d="M 271.5,620.5 C 274.65,622.577 277.984,624.41 281.5,626C 282.71,627.039 283.71,628.206 284.5,629.5C 278.576,628.996 273.576,626.663 269.5,622.5C 270.243,621.818 270.909,621.151 271.5,620.5 Z"/></g>
<g><path style="opacity:1" fill="#fa9b7b" d="M 206.5,633.5 C 213.04,637.924 218.707,643.257 223.5,649.5C 224.887,652.353 226.054,655.353 227,658.5C 233.168,663.521 235.668,669.854 234.5,677.5C 236.319,678.32 237.986,679.32 239.5,680.5C 239.198,683.059 239.532,685.393 240.5,687.5C 240.59,697.518 240.257,707.518 239.5,717.5C 237.159,724.213 234.826,730.88 232.5,737.5C 228.969,741.912 225.969,746.579 223.5,751.5C 222.5,751.5 221.5,751.5 220.5,751.5C 220.771,753.38 220.104,754.713 218.5,755.5C 215.891,755.83 214.224,757.33 213.5,760C 206.218,762.661 199.885,766.661 194.5,772C 191.247,773.036 187.914,773.703 184.5,774C 181.309,775.483 178.309,776.983 175.5,778.5C 161.368,779.085 147.368,778.085 133.5,775.5C 132.5,775.5 131.5,775.5 130.5,775.5C 123.683,772.594 117.35,768.927 111.5,764.5C 100.032,755.235 91.1983,743.901 85,730.5C 83.2222,723.688 81.3888,717.021 79.5,710.5C 76.8644,682.895 85.1977,659.395 104.5,640C 109.931,635.109 115.931,630.943 122.5,627.5C 124.05,626.559 125.716,625.893 127.5,625.5C 139.027,623.568 150.694,621.901 162.5,620.5C 169.482,621.798 176.482,622.965 183.5,624C 184.833,624.667 184.833,625.333 183.5,626C 188.892,627.01 194.225,628.343 199.5,630C 201.067,632.741 203.401,633.908 206.5,633.5 Z"/></g>
<g><path style="opacity:1" fill="#f2a276" d="M 175.5,619.5 C 186.867,621.864 197.2,626.53 206.5,633.5C 203.401,633.908 201.067,632.741 199.5,630C 194.225,628.343 188.892,627.01 183.5,626C 184.833,625.333 184.833,624.667 183.5,624C 176.482,622.965 169.482,621.798 162.5,620.5C 150.694,621.901 139.027,623.568 127.5,625.5C 130.606,623.732 133.939,622.232 137.5,621C 142.229,620.727 146.896,620.061 151.5,619C 159.512,618.501 167.512,618.667 175.5,619.5 Z"/></g>
<g><path style="opacity:1" fill="#faf4de" d="M 284.5,629.5 C 286.764,630.219 289.097,630.552 291.5,630.5C 291.5,631.5 291.5,632.5 291.5,633.5C 294.588,632.932 297.588,632.932 300.5,633.5C 300.023,634.478 299.357,635.311 298.5,636C 299.823,636.816 300.489,637.983 300.5,639.5C 296.815,637.339 292.982,635.339 289,633.5C 287.301,632.296 285.801,630.962 284.5,629.5 Z"/></g>
<g><path style="opacity:1" fill="#fa9b7b" d="M 1002.5,628.5 C 1018.59,637.419 1030.75,650.086 1039,666.5C 1039.2,668.382 1039.7,670.048 1040.5,671.5C 1041.69,681.477 1042.69,691.477 1043.5,701.5C 1042.56,710.229 1041.23,718.896 1039.5,727.5C 1039.48,729.927 1038.98,732.26 1038,734.5C 1033.88,741.755 1029.05,748.422 1023.5,754.5C 1020.45,755.545 1018.45,757.545 1017.5,760.5C 1012.74,760.948 1009.4,763.281 1007.5,767.5C 1007.5,767.833 1007.5,768.167 1007.5,768.5C 1002.91,770.126 998.581,772.293 994.5,775C 988.295,777.074 981.961,778.574 975.5,779.5C 957.912,780.394 941.245,777.227 925.5,770C 922.184,767.683 919.184,765.017 916.5,762C 914.866,761.506 913.199,761.34 911.5,761.5C 903.025,754.441 896.692,745.774 892.5,735.5C 890.648,727.356 888.482,719.356 886,711.5C 885.196,701.127 885.529,690.793 887,680.5C 887.667,679.833 888.333,679.167 889,678.5C 889.678,673.46 890.511,668.46 891.5,663.5C 893.17,660.825 894.836,658.159 896.5,655.5C 899.47,654.692 901.303,652.692 902,649.5C 903.067,648.809 904.234,648.309 905.5,648C 906.641,645.692 908.308,643.859 910.5,642.5C 911.452,644.045 911.785,645.712 911.5,647.5C 910.5,647.5 909.5,647.5 908.5,647.5C 908.187,651.019 909.52,652.353 912.5,651.5C 913.833,647.833 913.833,644.167 912.5,640.5C 918.536,637.115 923.536,632.782 927.5,627.5C 931.202,626.524 934.868,625.357 938.5,624C 949.954,620.966 961.454,620.466 973,622.5C 978.491,620.823 983.324,621.989 987.5,626C 992.64,626.179 997.64,627.012 1002.5,628.5 Z"/></g>
<g><path style="opacity:1" fill="#f5d08d" d="M 681.5,625.5 C 682.166,628.358 682.833,631.358 683.5,634.5C 685.026,634.994 686.359,635.661 687.5,636.5C 691.799,638.345 695.799,640.845 699.5,644C 703.84,645.282 708.173,646.449 712.5,647.5C 714.806,647.993 717.139,648.326 719.5,648.5C 719.5,649.167 719.5,649.833 719.5,650.5C 715.221,649.942 711.054,648.942 707,647.5C 706.517,648.448 706.351,649.448 706.5,650.5C 703.834,650.067 701.168,649.567 698.5,649C 699.5,648 700.5,647 701.5,646C 698.015,645.674 694.682,646.174 691.5,647.5C 691.5,646.5 691.5,645.5 691.5,644.5C 693.288,644.785 694.955,644.452 696.5,643.5C 694.024,640.931 691.524,640.931 689,643.5C 687.403,642.115 685.57,641.449 683.5,641.5C 683.5,642.5 683.5,643.5 683.5,644.5C 684.833,644.5 686.167,644.5 687.5,644.5C 687.241,648.068 685.241,649.401 681.5,648.5C 681.737,649.791 681.404,650.791 680.5,651.5C 681.341,644.535 681.674,637.535 681.5,630.5C 681.5,628.833 681.5,627.167 681.5,625.5 Z"/></g>
<g><path style="opacity:1" fill="#fcf7e9" d="M 687.5,636.5 C 691.594,637.132 695.427,638.466 699,640.5C 703.72,640.181 708.553,640.014 713.5,640C 711.059,640.036 709.059,640.869 707.5,642.5C 708.882,644.549 710.548,646.215 712.5,647.5C 708.173,646.449 703.84,645.282 699.5,644C 695.799,640.845 691.799,638.345 687.5,636.5 Z"/></g>
<g><path style="opacity:1" fill="#fcf6e5" d="M 303.5,639.5 C 305.833,639.5 308.167,639.5 310.5,639.5C 310.5,640.5 310.5,641.5 310.5,642.5C 313.249,642.726 315.916,642.393 318.5,641.5C 319.604,642.631 319.271,643.465 317.5,644C 318.381,644.708 319.047,645.542 319.5,646.5C 316.279,645.495 312.946,644.661 309.5,644C 307.141,642.758 305.141,641.258 303.5,639.5 Z"/></g>
<g><path style="opacity:1" fill="#fbfbed" d="M 421.5,641.5 C 419.81,643.342 417.81,644.675 415.5,645.5C 415.5,645.833 415.5,646.167 415.5,646.5C 410.292,648.135 404.958,649.135 399.5,649.5C 404.386,647.833 404.386,646.667 399.5,646C 406.774,644.351 414.108,642.851 421.5,641.5 Z"/></g>
<g><path style="opacity:1" fill="#f4a078" d="M 927.5,627.5 C 923.536,632.782 918.536,637.115 912.5,640.5C 913.833,644.167 913.833,647.833 912.5,651.5C 909.52,652.353 908.187,651.019 908.5,647.5C 909.5,647.5 910.5,647.5 911.5,647.5C 911.785,645.712 911.452,644.045 910.5,642.5C 908.308,643.859 906.641,645.692 905.5,648C 904.234,648.309 903.067,648.809 902,649.5C 901.303,652.692 899.47,654.692 896.5,655.5C 899.847,649.966 903.847,644.8 908.5,640C 909.448,639.517 910.448,639.351 911.5,639.5C 912.834,636.645 914.834,634.145 917.5,632C 920.965,630.678 924.298,629.178 927.5,627.5 Z"/></g>
<g><path style="opacity:1" fill="#f7dfb1" d="M 428.5,639.5 C 426.138,641.244 423.805,643.077 421.5,645C 419.527,645.495 417.527,645.662 415.5,645.5C 417.81,644.675 419.81,643.342 421.5,641.5C 423.558,640.067 425.892,639.4 428.5,639.5 Z"/></g>
<g><path style="opacity:1" fill="#fcf9e8" d="M 815.5,641.5 C 810.424,644.252 805.091,646.585 799.5,648.5C 794.044,649.864 788.711,651.197 783.5,652.5C 767.533,654.576 751.533,654.909 735.5,653.5C 730.514,651.299 725.18,650.299 719.5,650.5C 719.5,649.833 719.5,649.167 719.5,648.5C 724.034,648.267 728.368,649.1 732.5,651C 749.525,653.006 766.525,652.839 783.5,650.5C 783.5,648.833 783.5,647.167 783.5,645.5C 784.5,645.5 785.5,645.5 786.5,645.5C 786.5,646.5 786.5,647.5 786.5,648.5C 789.167,648.5 791.833,648.5 794.5,648.5C 794.33,647.178 794.663,646.011 795.5,645C 799.751,643.746 804.084,643.412 808.5,644C 810.441,642.097 812.774,641.264 815.5,641.5 Z"/></g>
<g><path style="opacity:1" fill="#f6e7c0" d="M 319.5,646.5 C 325.139,646.828 330.472,648.162 335.5,650.5C 339.335,651.461 343.335,652.295 347.5,653C 357.494,653.5 367.494,653.666 377.5,653.5C 376.167,654.167 374.833,654.833 373.5,655.5C 359.683,656.084 346.016,654.917 332.5,652C 328.141,650.053 323.808,648.219 319.5,646.5 Z"/></g>
<g><path style="opacity:1" fill="#fdfae9" d="M 399.5,650.5 C 392.473,652.704 385.14,653.704 377.5,653.5C 367.494,653.666 357.494,653.5 347.5,653C 343.335,652.295 339.335,651.461 335.5,650.5C 339.697,650.429 343.863,650.763 348,651.5C 349.658,651.325 350.991,650.658 352,649.5C 353.098,650.967 354.598,651.801 356.5,652C 361.667,652.167 366.833,652.333 372,652.5C 381.191,651.982 390.358,651.316 399.5,650.5 Z"/></g>
<g><path style="opacity:1" fill="#f2dda6" d="M 719.5,650.5 C 725.18,650.299 730.514,651.299 735.5,653.5C 729.743,654.068 724.41,653.068 719.5,650.5 Z"/></g>
<g><path style="opacity:1" fill="#f3d89d" d="M 415.5,646.5 C 412.548,649.495 408.882,651.161 404.5,651.5C 404.709,652.086 405.043,652.586 405.5,653C 402.322,653.445 399.155,653.278 396,652.5C 388.729,654.597 381.229,655.597 373.5,655.5C 374.833,654.833 376.167,654.167 377.5,653.5C 385.14,653.704 392.473,652.704 399.5,650.5C 399.5,650.167 399.5,649.833 399.5,649.5C 404.958,649.135 410.292,648.135 415.5,646.5 Z"/></g>
<g><path style="opacity:1" fill="#f1daaa" d="M 783.5,652.5 C 775.19,654.995 766.523,655.995 757.5,655.5C 751.833,655.333 746.167,655.167 740.5,655C 738.618,654.802 736.952,654.302 735.5,653.5C 751.533,654.909 767.533,654.576 783.5,652.5 Z"/></g>
<g><path style="opacity:1" fill="#f2a878" d="M 223.5,649.5 C 231.34,658.394 236.673,668.727 239.5,680.5C 237.986,679.32 236.319,678.32 234.5,677.5C 235.668,669.854 233.168,663.521 227,658.5C 226.054,655.353 224.887,652.353 223.5,649.5 Z"/></g>
<g><path style="opacity:1" fill="#e6b882" d="M 432.5,634.5 C 431.921,647.268 433.921,659.601 438.5,671.5C 437.5,671.5 436.5,671.5 435.5,671.5C 434.345,666.207 433.178,660.873 432,655.5C 431.501,650.177 431.334,644.844 431.5,639.5C 431.216,637.585 431.549,635.919 432.5,634.5 Z"/></g>
<g><path style="opacity:1" fill="#fdc989" d="M 887.5,671.5 C 882.197,690.182 882.197,708.849 887.5,727.5C 885.314,726.177 883.814,724.177 883,721.5C 880.788,706.44 881.121,691.44 884,676.5C 885.03,674.654 886.196,672.987 887.5,671.5 Z"/></g>
<g><path style="opacity:1" fill="#f2a076" d="M 891.5,663.5 C 890.511,668.46 889.678,673.46 889,678.5C 888.333,679.167 887.667,679.833 887,680.5C 885.529,690.793 885.196,701.127 886,711.5C 888.482,719.356 890.648,727.356 892.5,735.5C 891.504,735.586 890.671,735.252 890,734.5C 889.61,731.896 888.776,729.562 887.5,727.5C 882.197,708.849 882.197,690.182 887.5,671.5C 888.538,668.655 889.872,665.988 891.5,663.5 Z"/></g>
<g><path style="opacity:1" fill="#733f1e" d="M 651.5,695.5 C 645.069,701.601 638.069,706.934 630.5,711.5C 628.046,712.227 625.713,713.227 623.5,714.5C 623.33,713.178 623.663,712.011 624.5,711C 632.535,708.29 639.535,703.957 645.5,698C 646.448,697.517 647.448,697.351 648.5,697.5C 648.402,694.752 649.402,694.086 651.5,695.5 Z"/></g>
<g><path style="opacity:1" fill="#f2c68a" d="M 658.5,689.5 C 658.5,690.833 658.5,692.167 658.5,693.5C 657.448,693.351 656.448,693.517 655.5,694C 653.473,696.094 651.806,698.427 650.5,701C 646.283,702.939 642.283,705.106 638.5,707.5C 637.738,708.628 637.071,709.795 636.5,711C 634.5,710.207 632.5,710.374 630.5,711.5C 638.069,706.934 645.069,701.601 651.5,695.5C 653.833,693.5 656.167,691.5 658.5,689.5 Z"/></g>
<g><path style="opacity:1" fill="#753b28" d="M 543.5,547.5 C 558.184,547.315 572.851,547.649 587.5,548.5C 588.833,548.5 590.167,548.5 591.5,548.5C 591.833,548.5 592.167,548.5 592.5,548.5C 598.75,550.052 605.083,551.719 611.5,553.5C 618.275,555.979 624.942,558.645 631.5,561.5C 638.317,565.079 644.65,569.412 650.5,574.5C 650.178,576.722 650.845,578.556 652.5,580C 655.497,580.775 657.83,582.441 659.5,585C 660.448,585.483 661.448,585.649 662.5,585.5C 662.5,585.833 662.5,586.167 662.5,586.5C 662.703,588.39 662.037,589.89 660.5,591C 664.968,591.074 667.968,593.241 669.5,597.5C 666.919,599.674 666.919,601.84 669.5,604C 668.351,605.744 667.017,605.911 665.5,604.5C 663.621,600.982 662.288,597.315 661.5,593.5C 656.606,594.54 656.273,596.54 660.5,599.5C 657.272,603.024 657.939,605.024 662.5,605.5C 662.338,607.527 662.505,609.527 663,611.5C 664.655,611.802 665.988,613.136 667,615.5C 669.109,613.532 669.942,611.365 669.5,609C 670.34,607.829 671.173,606.662 672,605.5C 673.452,609.737 675.452,613.737 678,617.5C 678.962,622.012 680.129,626.345 681.5,630.5C 681.674,637.535 681.341,644.535 680.5,651.5C 676.138,665.868 668.805,678.535 658.5,689.5C 656.167,691.5 653.833,693.5 651.5,695.5C 649.402,694.086 648.402,694.752 648.5,697.5C 647.448,697.351 646.448,697.517 645.5,698C 639.535,703.957 632.535,708.29 624.5,711C 623.663,712.011 623.33,713.178 623.5,714.5C 618.167,716.833 612.833,719.167 607.5,721.5C 605.883,722.038 604.216,722.371 602.5,722.5C 598.993,722.693 595.66,722.027 592.5,720.5C 589.074,722.478 585.407,723.978 581.5,725C 574.5,725.333 567.5,725.667 560.5,726C 569.488,727.068 569.155,728.068 559.5,729C 550.163,729.333 540.83,729.167 531.5,728.5C 525.5,727.833 519.5,727.167 513.5,726.5C 510.198,725.706 506.865,725.04 503.5,724.5C 481.6,717.298 463.1,704.964 448,687.5C 444.555,682.268 441.389,676.935 438.5,671.5C 433.921,659.601 431.921,647.268 432.5,634.5C 433.04,628.116 434.706,622.116 437.5,616.5C 438.735,616.279 439.735,615.612 440.5,614.5C 441.308,612.577 441.808,610.577 442,608.5C 444.865,605.741 446.699,602.408 447.5,598.5C 459.272,581.726 474.606,569.393 493.5,561.5C 499.12,560.855 504.12,558.855 508.5,555.5C 509.29,554.599 510.29,553.932 511.5,553.5C 522.055,550.852 532.721,548.852 543.5,547.5 Z"/></g>
<g><path style="opacity:1" fill="#d59079" d="M 449.5,630.5 C 449.5,638.167 449.5,645.833 449.5,653.5C 446.888,645.827 446.888,638.16 449.5,630.5 Z"/></g>
<g><path style="opacity:1" fill="#f4a890" d="M 449.5,653.5 C 449.5,645.833 449.5,638.167 449.5,630.5C 455.606,609.885 467.94,594.052 486.5,583C 517.807,564.87 551.474,558.537 587.5,564C 614.54,568.099 637.04,580.266 655,600.5C 673.006,631.823 668.506,659.657 641.5,684C 620.578,700.985 596.578,710.985 569.5,714C 540.744,717.319 513.411,712.652 487.5,700C 471.922,691.423 460.089,679.256 452,663.5C 450.85,660.232 450.016,656.899 449.5,653.5 Z"/></g>
<g><path style="opacity:1" fill="#e09984" d="M 609.5,636.5 C 609.389,637.117 609.056,637.617 608.5,638C 571.674,639.551 535.007,639.718 498.5,638.5C 535.548,638.534 572.548,637.868 609.5,636.5 Z"/></g>
<g><path style="opacity:1" fill="#753a28" d="M 583.5,621.5 C 593.247,621.08 602.914,621.58 612.5,623C 617.222,628.849 616.222,633.349 609.5,636.5C 572.548,637.868 535.548,638.534 498.5,638.5C 493.013,636.862 491.18,633.195 493,627.5C 494.397,625.93 495.897,624.596 497.5,623.5C 526.345,623.583 555.012,622.917 583.5,621.5 Z"/></g>
<g><path style="opacity:1" fill="#91503c" d="M 583.5,621.5 C 555.012,622.917 526.345,623.583 497.5,623.5C 525.989,622.111 554.656,621.445 583.5,621.5 Z"/></g>
<g><path style="opacity:1" fill="#f5b77f" d="M 240.5,687.5 C 241.658,696.657 241.824,705.991 241,715.5C 240.722,716.416 240.222,717.082 239.5,717.5C 240.257,707.518 240.59,697.518 240.5,687.5 Z"/></g>
<g><path style="opacity:1" fill="#f3a979" d="M 1040.5,671.5 C 1046.28,688.611 1046.78,705.945 1042,723.5C 1041.39,725.066 1040.56,726.4 1039.5,727.5C 1041.23,718.896 1042.56,710.229 1043.5,701.5C 1042.69,691.477 1041.69,681.477 1040.5,671.5 Z"/></g>
<g><path style="opacity:1" fill="#764123" d="M 602.5,722.5 C 596.482,724.923 590.149,726.589 583.5,727.5C 580.572,727.565 577.905,728.232 575.5,729.5C 560.687,730.774 546.02,730.774 531.5,729.5C 531.5,729.167 531.5,728.833 531.5,728.5C 540.83,729.167 550.163,729.333 559.5,729C 569.155,728.068 569.488,727.068 560.5,726C 567.5,725.667 574.5,725.333 581.5,725C 585.407,723.978 589.074,722.478 592.5,720.5C 595.66,722.027 598.993,722.693 602.5,722.5 Z"/></g>
<g><path style="opacity:1" fill="#f6cc8a" d="M 607.5,721.5 C 606.527,723.3 605.527,725.134 604.5,727C 599.563,727.06 594.896,728.06 590.5,730C 583.132,730.313 575.799,730.98 568.5,732C 566.791,733.545 564.791,734.378 562.5,734.5C 546.688,732.908 530.855,731.242 515,729.5C 513.439,729.603 511.939,729.937 510.5,730.5C 510.264,729.753 509.93,728.92 509.5,728C 507.273,727.059 505.273,725.892 503.5,724.5C 506.865,725.04 510.198,725.706 513.5,726.5C 519.17,728.703 525.17,729.703 531.5,729.5C 546.02,730.774 560.687,730.774 575.5,729.5C 578.495,729.706 581.162,729.04 583.5,727.5C 590.149,726.589 596.482,724.923 602.5,722.5C 604.216,722.371 605.883,722.038 607.5,721.5 Z"/></g>
<g><path style="opacity:1" fill="#be8f63" d="M 583.5,727.5 C 581.162,729.04 578.495,729.706 575.5,729.5C 577.905,728.232 580.572,727.565 583.5,727.5 Z"/></g>
<g><path style="opacity:1" fill="#94613a" d="M 513.5,726.5 C 519.5,727.167 525.5,727.833 531.5,728.5C 531.5,728.833 531.5,729.167 531.5,729.5C 525.17,729.703 519.17,728.703 513.5,726.5 Z"/></g>
<g><path style="opacity:1" fill="#fdcc88" d="M 79.5,710.5 C 81.3888,717.021 83.2222,723.688 85,730.5C 91.1983,743.901 100.032,755.235 111.5,764.5C 110.127,764.657 108.793,764.49 107.5,764C 103.155,758.656 98.1548,753.989 92.5,750C 90.0354,747.823 89.0354,745.323 89.5,742.5C 88.7193,743.737 87.7193,744.737 86.5,745.5C 86.1667,744.833 85.8333,744.167 85.5,743.5C 86.2798,742.051 86.9465,740.551 87.5,739C 84.7033,734.016 82.37,728.85 80.5,723.5C 79.5078,719.217 79.1744,714.884 79.5,710.5 Z"/></g>
<g><path style="opacity:1" fill="#fbc587" d="M 232.5,737.5 C 230.539,740.861 229.039,744.528 228,748.5C 227.092,750.439 225.592,751.439 223.5,751.5C 225.969,746.579 228.969,741.912 232.5,737.5 Z"/></g>
<g><path style="opacity:1" fill="#f2a276" d="M 218.5,755.5 C 213.42,762.399 206.753,767.232 198.5,770C 196.499,772.325 194.166,774.158 191.5,775.5C 186.289,777.008 180.956,778.008 175.5,778.5C 178.309,776.983 181.309,775.483 184.5,774C 187.914,773.703 191.247,773.036 194.5,772C 199.885,766.661 206.218,762.661 213.5,760C 214.224,757.33 215.891,755.83 218.5,755.5 Z"/></g>
<g><path style="opacity:1" fill="#f1a576" d="M 1023.5,754.5 C 1021,757.169 1018.67,760.002 1016.5,763C 1013.5,764.498 1010.5,765.998 1007.5,767.5C 1009.4,763.281 1012.74,760.948 1017.5,760.5C 1018.45,757.545 1020.45,755.545 1023.5,754.5 Z"/></g>
<g><path style="opacity:1" fill="#f1a776" d="M 911.5,761.5 C 913.199,761.34 914.866,761.506 916.5,762C 919.184,765.017 922.184,767.683 925.5,770C 941.245,777.227 957.912,780.394 975.5,779.5C 967.344,780.657 959.01,780.823 950.5,780C 946.619,778.81 942.619,778.143 938.5,778C 934.921,776.019 931.254,774.186 927.5,772.5C 921.502,769.832 916.169,766.165 911.5,761.5 Z"/></g>
<g><path style="opacity:1" fill="#fdcb89" d="M 130.5,775.5 C 131.5,775.5 132.5,775.5 133.5,775.5C 136.285,777.834 139.618,779.168 143.5,779.5C 152.816,780.665 162.149,780.832 171.5,780C 173.058,779.79 174.391,779.29 175.5,778.5C 180.956,778.008 186.289,777.008 191.5,775.5C 191.5,776.833 191.5,778.167 191.5,779.5C 172.114,782.241 152.78,782.074 133.5,779C 131.944,778.28 130.944,777.113 130.5,775.5 Z"/></g>
<g><path style="opacity:1" fill="#fccd8a" d="M 1007.5,768.5 C 1005.34,771.42 1002.34,773.087 998.5,773.5C 998.703,775.39 998.037,776.89 996.5,778C 994.616,778.216 992.949,778.883 991.5,780C 981.887,781.643 972.221,782.81 962.5,783.5C 954.898,782.1 947.231,781.266 939.5,781C 937.608,780.027 935.608,779.36 933.5,779C 934.634,777.984 934.301,777.317 932.5,777C 930.866,776.506 929.199,776.34 927.5,776.5C 927.5,775.167 927.5,773.833 927.5,772.5C 931.254,774.186 934.921,776.019 938.5,778C 942.619,778.143 946.619,778.81 950.5,780C 959.01,780.823 967.344,780.657 975.5,779.5C 981.961,778.574 988.295,777.074 994.5,775C 998.581,772.293 1002.91,770.126 1007.5,768.5 Z"/></g>
<g><path style="opacity:1" fill="#f3a377" d="M 133.5,775.5 C 147.368,778.085 161.368,779.085 175.5,778.5C 174.391,779.29 173.058,779.79 171.5,780C 162.149,780.832 152.816,780.665 143.5,779.5C 139.618,779.168 136.285,777.834 133.5,775.5 Z"/></g>
</svg>
